HIERARCHY
ROOT Hips
{
	OFFSET 0.000000 0.000000 0.000000
	CHANNELS 6 Xposition Yposition Zposition Zrotation Yrotation Xrotation 
	JOINT LHipJoint
	{
		OFFSET 0.000000 0.000000 0.000000
		CHANNELS 3 Zrotation Yrotation Xrotation
		JOINT LeftUpLeg
		{
			OFFSET 1.363060 -1.794630 0.839290
			CHANNELS 3 Zrotation Yrotation Xrotation
			JOINT LeftLeg
			{
				OFFSET 2.448110 -6.726130 0.000000
				CHANNELS 3 Zrotation Yrotation Xrotation
				JOINT LeftFoot
				{
					OFFSET 2.562200 -7.039590 0.000000
					CHANNELS 3 Zrotation Yrotation Xrotation
					JOINT LeftToeBase
					{
						OFFSET 0.157640 -0.433110 2.322550
						CHANNELS 3 Zrotation Yrotation Xrotation
						End Site
						{
							OFFSET 0.000000 0.000000 0.000000
						}
					}
				}
			}
		}
	}
	JOINT RHipJoint
	{
		OFFSET 0.000000 0.000000 0.000000
		CHANNELS 3 Zrotation Yrotation Xrotation
		JOINT RightUpLeg
		{
			OFFSET -1.305520 -1.794630 0.839290
			CHANNELS 3 Zrotation Yrotation Xrotation
			JOINT RightLeg
			{
				OFFSET -2.542530 -6.985550 0.000000
				CHANNELS 3 Zrotation Yrotation Xrotation
				JOINT RightFoot
				{
					OFFSET -2.568260 -7.056230 0.000000
					CHANNELS 3 Zrotation Yrotation Xrotation
					JOINT RightToeBase
					{
						OFFSET -0.164730 -0.452590 2.363150
						CHANNELS 3 Zrotation Yrotation Xrotation
						End Site
						{
							OFFSET 0.000000 0.000000 0.000000
						}
					}
				}
			}
		}
	}
}
MOTION
Frames: 11
Frame Time: 0.008333
2.130170 17.332829 -0.528175 131.759745 -81.382971 -124.318546 -9.327767 2.410792 0.319929 -10.932435 8.020638 -11.611717 -1.601696 -0.002289 13.099216 2.522221 18.714541 2.101632 3.524300 0.000000 -42.397700 10.505321 -1.366989 2.469982 5.135944 5.682355 -9.462429 1.306895 -0.395401 15.356422 -1.859462 -6.880948 -10.592807 0.059100 -0.000000 -51.467500
2.150181 17.327778 -0.565997 130.791247 -81.117493 -124.072938 -9.226819 2.364757 0.057817 -11.208768 8.149380 -12.230278 -1.522381 0.214773 15.440064 2.558871 18.995594 2.507517 3.688900 -0.000000 -41.713400 10.686467 -1.292815 2.167032 4.840011 5.134626 -8.788068 1.288840 -0.505947 15.868428 -1.784679 -6.514305 -10.719570 0.090300 -0.000000 -51.929299
2.167962 17.323608 -0.601813 129.686768 -80.944805 -123.529679 -9.140346 2.306694 -0.133645 -11.440468 8.191387 -13.031849 -1.468591 0.387721 17.322240 2.543736 18.960667 3.014111 3.824000 -0.000000 -40.827800 10.848596 -1.227612 1.896178 4.593402 4.536762 -8.283183 1.280867 -0.591745 16.257054 -1.706899 -6.135378 -10.789638 0.108900 -0.000000 -52.379600
2.183245 17.321132 -0.636308 128.381290 -80.856097 -122.615120 -9.056726 2.236310 -0.244655 -11.645984 8.090295 -13.990402 -1.448647 0.509981 18.656587 2.481555 18.616074 3.548887 3.903100 -0.000000 -39.852100 10.996746 -1.168090 1.658327 4.384090 3.895280 -7.954042 1.279282 -0.652777 16.522810 -1.628450 -5.755148 -10.805262 0.116700 -0.000000 -52.805901
2.196255 17.320848 -0.669949 126.811276 -80.843726 -121.262195 -8.965889 2.152671 -0.270432 -11.838704 7.807715 -15.096954 -1.469553 0.579031 19.401189 2.377697 17.977024 4.041443 3.903400 0.000000 -38.829999 11.134813 -1.110903 1.454418 4.206611 3.221428 -7.807176 1.281114 -0.689739 16.673747 -1.552612 -5.389295 -10.772354 0.115900 -0.000000 -53.213401
2.207336 17.322935 -0.703028 124.920747 -80.896890 -119.413899 -8.859915 2.054436 -0.210537 -12.025357 7.310141 -16.335537 -1.534524 0.594545 19.530132 2.240882 17.094829 4.464676 3.828600 0.000000 -37.903000 11.264904 -1.051688 1.282322 4.058648 2.535514 -7.837662 1.283432 -0.704190 16.720674 -1.483958 -5.061019 -10.697528 0.108500 0.000001 -53.575001
2.216997 17.327260 -0.735433 122.667516 -81.008056 -117.029142 -8.734725 1.938901 -0.066403 -12.197967 6.576771 -17.700096 -1.643511 0.557194 19.048227 2.081074 16.035574 4.809290 3.693700 0.000000 -37.107300 11.385419 -0.986924 1.139577 3.948397 1.861236 -8.040471 1.284689 -0.697833 16.678353 -1.427635 -4.796213 -10.591287 0.096800 -0.000000 -53.875000
2.225970 17.333343 -0.766728 120.014029 -81.170780 -114.074980 -8.590373 1.802151 0.159496 -12.334762 5.593908 -19.187720 -1.791703 0.467960 17.978813 1.910816 14.890489 5.097306 3.530100 0.000001 -36.483300 11.490581 -0.913475 1.022689 3.891219 1.228341 -8.407819 1.284123 -0.672512 16.562881 -1.389537 -4.624885 -10.465496 0.082200 -0.000001 -54.095800
2.235200 17.340471 -0.796188 116.922620 -81.379090 -110.526425 -8.429339 1.640328 0.459298 -12.403380 4.367413 -20.788012 -1.969614 0.328648 16.364879 1.743235 13.761614 5.373536 3.374700 -0.000000 -36.074600 11.573938 -0.828752 0.921715 3.903107 0.655444 -8.917094 1.282263 -0.631192 16.391920 -1.373445 -4.566652 -10.330747 0.065900 -0.000001 -54.228600
2.245668 17.347802 -0.822911 113.346474 -81.629112 -106.352593 -8.258804 1.449921 0.823533 -12.366049 2.927346 -22.511980 -2.162831 0.142586 14.283412 1.591212 12.749879 5.687901 3.262200 0.000000 -35.887000 11.625203 -0.732280 0.829309 4.004887 0.167577 -9.547224 1.280279 -0.576279 16.180817 -1.383780 -4.643473 -10.197949 0.048100 0.000000 -54.259201
2.258416 17.354509 -0.846026 109.206417 -81.915441 -101.498631 -8.087210 1.230556 1.234403 -12.195176 1.343617 -24.378374 -2.354699 -0.083006 11.850271 1.463411 11.924997 6.082711 3.214600 0.000000 -35.935700 11.636643 -0.625079 0.734131 4.210553 -0.228534 -10.265052 1.279970 -0.510830 15.942984 -1.422059 -4.862637 -10.072169 0.028200 -0.000000 -54.180900
